<svg version="1.1" fill="none" stroke="none" stroke-linecap="square" stroke-miterlimit="10" xmlns:xlink="http://www.w3.org/1999/xlink" xmlns="http://www.w3.org/2000/svg" viewBox="0 0 720 540"><clipPath id="p.0"><path d="m0 0l720.0 0l0 540.0l-720.0 0l0 -540.0z" clip-rule="nonzero"/></clipPath><g clip-path="url(#p.0)"><path fill="#000000" fill-opacity="0.0" d="m0 0l720.0 0l0 540.0l-720.0 0z" fill-rule="evenodd"/><path fill="#000000" fill-opacity="0.0" d="m78.37008 51.53018l367.1496 0l0 92.31496l-367.1496 0z" fill-rule="evenodd"/><path fill="#c96868" d="m95.510704 91.56956l-0.828125 -5.328125l14.875 -14.96875l6.75 0l-20.796875 20.296875zm-4.25 8.640625l0 -28.9375l5.359375 0l0 28.9375l-5.359375 0zm18.96875 0l-10.953125 -14.59375l3.796875 -3.265625l13.6875 17.859375l-6.53125 0zm10.113602 0l0 -21.78125l4.96875 0l0.078125 4.46875l-0.953125 0.484375q0.421875 -1.484375 1.609375 -2.703125q1.203125 -1.21875 2.8593674 -1.953125q1.65625 -0.75 3.390625 -0.75q2.484375 0 4.15625 1.0q1.671875 0.984375 2.515625 2.96875q0.84375 1.984375 0.84375 4.953125l0 13.3125l-5.078125 0l0 -12.9375q0 -1.65625 -0.453125 -2.75q-0.453125 -1.09375 -1.40625 -1.609375q-0.953125 -0.515625 -2.3125 -0.46875q-1.125 0 -2.0625 0.359375q-0.9218674 0.34375 -1.6093674 0.984375q-0.671875 0.640625 -1.0625 1.46875q-0.390625 0.8125 -0.390625 1.8125l0 13.140625l-2.53125 0q-0.734375 0 -1.375 0q-0.640625 0 -1.1875 0zm25.746986 0l0 -21.78125l5.09375 0l0 21.78125l-5.09375 0zm2.484375 -26.40625q-1.53125 0 -2.375 -0.765625q-0.84375 -0.765625 -0.84375 -2.171875q0 -1.328125 0.859375 -2.140625q0.875 -0.828125 2.359375 -0.828125q1.578125 0 2.421875 0.765625q0.84375 0.75 0.84375 2.203125q0 1.28125 -0.875 2.109375q-0.859375 0.828125 -2.390625 0.828125zm11.406036 26.40625l0 -27.3125l5.09375 0l0 27.3125l-5.09375 0zm-4.296875 -17.0625l0 -4.71875l14.140625 0l0 4.71875l-14.140625 0zm104.10457 17.46875q-3.140625 0 -5.7500153 -1.0625q-2.59375 -1.078125 -4.5 -3.078125q-1.890625 -2.015625 -2.953125 -4.75q-1.046875 -2.75 -1.046875 -6.015625q0 -3.140625 1.109375 -5.828125q1.125 -2.6875 3.09375 -4.703125q1.984375 -2.03125 4.625 -3.140625q2.6562653 -1.125 5.7500153 -1.125q2.109375 0 4.09375 0.625q1.984375 0.609375 3.640625 1.703125q1.65625 1.09375 2.765625 2.546875l-3.421875 3.75q-1.078125 -1.109375 -2.21875 -1.875q-1.140625 -0.765625 -2.359375 -1.15625q-1.21875 -0.390625 -2.5 -0.390625q-1.890625 0 -3.578125 0.703125q-1.6718903 0.703125 -2.8906403 1.984375q-1.21875 1.28125 -1.921875 3.046875q-0.703125 1.75 -0.703125 3.890625q0 2.1875 0.6875 3.96875q0.6875 1.78125 1.9375 3.0625q1.265625 1.28125 3.0156403 1.96875q1.765625 0.671875 3.875 0.671875q1.359375 0 2.640625 -0.359375q1.28125 -0.375 2.375 -1.0625q1.09375 -0.6875 2.0 -1.59375l2.65625 4.265625q-1.0 1.109375 -2.65625 2.015625q-1.640625 0.90625 -3.6875 1.421875q-2.046875 0.515625 -4.078125 0.515625zm25.049713 0q-3.265625 0 -5.828125 -1.453125q-2.5625 -1.46875 -4.046875 -4.03125q-1.484375 -2.5625 -1.484375 -5.828125q0 -3.265625 1.484375 -5.828125q1.484375 -2.5625 4.046875 -4.03125q2.5625 -1.46875 5.828125 -1.46875q3.21875 0 5.78125 1.46875q2.5625 1.46875 4.03125 4.03125q1.46875 2.5625 1.46875 5.828125q0 3.265625 -1.46875 5.828125q-1.46875 2.5625 -4.03125 4.03125q-2.5625 1.453125 -5.78125 1.453125zm0 -4.5q1.78125 0 3.15625 -0.90625q1.390625 -0.90625 2.1875 -2.4375q0.8125 -1.53125 0.765625 -3.46875q0.046875 -1.984375 -0.765625 -3.515625q-0.796875 -1.53125 -2.1875 -2.421875q-1.375 -0.890625 -3.15625 -0.890625q-1.78125 0 -3.203125 0.890625q-1.421875 0.890625 -2.21875 2.4375q-0.78125 1.546875 -0.78125 3.5q0 1.9375 0.78125 3.46875q0.796875 1.53125 2.21875 2.4375q1.421875 0.90625 3.203125 0.90625zm15.820038 4.09375l0 -21.78125l4.96875 0l0.078125 4.46875l-0.953125 0.484375q0.421875 -1.484375 1.609375 -2.703125q1.203125 -1.21875 2.859375 -1.953125q1.65625 -0.75 3.390625 -0.75q2.484375 0 4.15625 1.0q1.671875 0.984375 2.515625 2.96875q0.84375 1.984375 0.84375 4.953125l0 13.3125l-5.078125 0l0 -12.9375q0 -1.65625 -0.453125 -2.75q-0.453125 -1.09375 -1.40625 -1.609375q-0.953125 -0.515625 -2.3125 -0.46875q-1.125 0 -2.0625 0.359375q-0.921875 0.34375 -1.609375 0.984375q-0.671875 0.640625 -1.0625 1.46875q-0.390625 0.8125 -0.390625 1.8125l0 13.140625l-2.53125 0q-0.734375 0 -1.375 0q-0.640625 0 -1.1875 0zm27.52826 0l0 -27.3125l5.09375 0l0 27.3125l-5.09375 0zm-4.296875 -17.0625l0 -4.71875l14.140625 0l0 4.71875l-14.140625 0zm18.01416 17.0625l0 -21.78125l5.0 0l0.09375 6.9375l-0.703125 -1.5625q0.453125 -1.65625 1.5625 -2.96875q1.125 -1.328125 2.59375 -2.09375q1.46875 -0.765625 3.078125 -0.765625q0.703125 0 1.34375 0.125q0.640625 0.125 1.046875 0.28125l-1.359375 5.59375q-0.453125 -0.25 -1.125 -0.421875q-0.65625 -0.171875 -1.3125 -0.171875q-1.03125 0 -1.96875 0.40625q-0.921875 0.390625 -1.625 1.09375q-0.703125 0.703125 -1.109375 1.640625q-0.390625 0.921875 -0.390625 2.078125l0 11.609375l-5.125 0zm24.724213 0.40625q-2.6875 0 -4.875 -1.484375q-2.1875 -1.484375 -3.515625 -4.046875q-1.328125 -2.5625 -1.328125 -5.828125q0 -3.265625 1.328125 -5.828125q1.328125 -2.5625 3.59375 -4.0q2.265625 -1.453125 5.125 -1.453125q1.65625 0 3.015625 0.484375q1.359375 0.46875 2.390625 1.34375q1.046875 0.859375 1.71875 1.984375q0.6875 1.109375 0.9375 2.390625l-1.125 -0.296875l0 -5.453125l5.125 0l0 21.78125l-5.15625 0l0 -5.203125l1.1875 -0.203125q-0.28125 1.109375 -1.046875 2.171875q-0.765625 1.046875 -1.90625 1.859375q-1.125 0.796875 -2.515625 1.296875q-1.390625 0.484375 -2.953125 0.484375zm1.40625 -4.5q1.765625 0 3.125 -0.859375q1.375 -0.875 2.140625 -2.421875q0.765625 -1.546875 0.765625 -3.578125q0 -1.984375 -0.765625 -3.515625q-0.765625 -1.53125 -2.140625 -2.390625q-1.359375 -0.875 -3.125 -0.875q-1.78125 0 -3.125 0.875q-1.34375 0.859375 -2.09375 2.390625q-0.734375 1.53125 -0.734375 3.515625q0 2.03125 0.734375 3.578125q0.75 1.546875 2.09375 2.421875q1.34375 0.859375 3.125 0.859375zm26.23584 4.5q-3.0625 0 -5.5 -1.484375q-2.4375 -1.484375 -3.84375 -4.046875q-1.390625 -2.5625 -1.390625 -5.78125q0 -3.234375 1.390625 -5.796875q1.40625 -2.5625 3.84375 -4.046875q2.4375 -1.484375 5.5 -1.484375q2.9375 0 5.328125 1.125q2.40625 1.109375 3.71875 3.09375l-2.796875 3.390625q-0.625 -0.875 -1.578125 -1.578125q-0.953125 -0.703125 -2.03125 -1.109375q-1.0625 -0.421875 -2.140625 -0.421875q-1.8125 0 -3.25 0.890625q-1.421875 0.890625 -2.25 2.4375q-0.828125 1.546875 -0.828125 3.5q0 1.9375 0.84375 3.46875q0.859375 1.53125 2.296875 2.4375q1.453125 0.90625 3.234375 0.90625q1.0625 0 2.078125 -0.34375q1.015625 -0.359375 1.921875 -1.015625q0.90625 -0.65625 1.703125 -1.65625l2.796875 3.4375q-1.390625 1.8125 -3.859375 2.953125q-2.453125 1.125 -5.1875 1.125zm15.291504 -0.40625l0 -27.3125l5.09375 0l0 27.3125l-5.09375 0zm-4.296875 -17.0625l0 -4.71875l14.140625 0l0 4.71875l-14.140625 0z" fill-rule="nonzero"/><path fill="#7eacb5" d="m94.49508 135.67767q-1.359375 0 -2.5 -0.484375q-1.140625 -0.484375 -1.984375 -1.390625q-0.828125 -0.90625 -1.296875 -2.140625q-0.453125 -1.234375 -0.453125 -2.703125q0 -1.390625 0.5 -2.59375q0.5 -1.203125 1.375 -2.109375q0.875 -0.921875 2.03125 -1.421875q1.15625 -0.515625 2.5 -0.515625q0.953125 0 1.859375 0.296875q0.90625 0.28125 1.640625 0.796875q0.734375 0.515625 1.203125 1.171875l-1.34375 1.390625q-0.546875 -0.546875 -1.09375 -0.90625q-0.546875 -0.359375 -1.125 -0.546875q-0.5625 -0.1875 -1.140625 -0.1875q-0.921875 0 -1.71875 0.34375q-0.78125 0.34375 -1.375 0.96875q-0.578125 0.609375 -0.921875 1.46875q-0.328125 0.84375 -0.328125 1.84375q0 1.0625 0.3125 1.9375q0.328125 0.859375 0.921875 1.484375q0.609375 0.609375 1.4375 0.9375q0.828125 0.328125 1.84375 0.328125q0.609375 0 1.203125 -0.171875q0.59375 -0.171875 1.109375 -0.484375q0.53125 -0.3125 0.96875 -0.75l1.0 1.640625q-0.421875 0.515625 -1.171875 0.921875q-0.734375 0.40625 -1.640625 0.640625q-0.890625 0.234375 -1.8125 0.234375zm11.292603 0q-1.4375 0 -2.578125 -0.65625q-1.125 -0.671875 -1.78125 -1.8125q-0.640625 -1.15625 -0.640625 -2.625q0 -1.46875 0.640625 -2.609375q0.65625 -1.15625 1.78125 -1.8125q1.140625 -0.671875 2.578125 -0.671875q1.40625 0 2.53125 0.671875q1.140625 0.65625 1.796875 1.8125q0.65625 1.140625 0.65625 2.609375q0 1.46875 -0.65625 2.625q-0.65625 1.140625 -1.796875 1.8125q-1.125 0.65625 -2.53125 0.65625zm0 -1.75q0.875 0 1.5625 -0.4375q0.6875 -0.4375 1.078125 -1.1875q0.390625 -0.765625 0.375 -1.71875q0.015625 -0.96875 -0.375 -1.71875q-0.390625 -0.765625 -1.078125 -1.1875q-0.6875 -0.4375 -1.5625 -0.4375q-0.875 0 -1.578125 0.4375q-0.703125 0.4375 -1.09375 1.203125q-0.390625 0.75 -0.375 1.703125q-0.015625 0.953125 0.375 1.71875q0.390625 0.75 1.09375 1.1875q0.703125 0.4375 1.578125 0.4375zm7.0673523 1.5625l0 -9.796875l1.921875 0l0 2.015625l-0.34375 0.21875q0.1875 -0.640625 0.734375 -1.1875q0.546875 -0.5625 1.28125 -0.90625q0.75 -0.34375 1.53125 -0.34375q1.125 0 1.859375 0.4375q0.75 0.4375 1.125 1.34375q0.375 0.890625 0.375 2.25l0 5.96875l-1.921875 0l0 -5.84375q0 -0.828125 -0.21875 -1.375q-0.21875 -0.5625 -0.6875 -0.8125q-0.46875 -0.25 -1.15625 -0.21875q-0.5625 0 -1.03125 0.1875q-0.46875 0.171875 -0.8125 0.5q-0.34375 0.3125 -0.546875 0.734375q-0.1875 0.40625 -0.1875 0.890625l0 5.9375l-0.953125 0q-0.234375 0 -0.484375 0q-0.25 0 -0.484375 0zm12.319214 0l0 -12.296875l1.921875 0l0 12.296875l-1.921875 0zm-2.046875 -7.921875l0 -1.875l6.2343674 0l0 1.875l-6.2343674 0zm7.992119 7.921875l0 -9.796875l1.9375 0l0 3.078125l-0.1875 -0.75q0.203125 -0.703125 0.703125 -1.28125q0.5 -0.578125 1.140625 -0.90625q0.640625 -0.34375 1.328125 -0.34375q0.3125 0 0.59375 0.0625q0.296875 0.046875 0.46875 0.125l-0.5 2.09375q-0.21875 -0.09375 -0.5 -0.15625q-0.265625 -0.078125 -0.53125 -0.078125q-0.5 0 -0.953125 0.203125q-0.453125 0.1875 -0.8125 0.546875q-0.34375 0.34375 -0.546875 0.796875q-0.203125 0.453125 -0.203125 1.0l0 5.40625l-1.9375 0zm10.873428 0.1875q-1.203125 0 -2.203125 -0.671875q-1.0 -0.671875 -1.609375 -1.828125q-0.59375 -1.15625 -0.59375 -2.609375q0 -1.484375 0.609375 -2.625q0.609375 -1.140625 1.640625 -1.796875q1.046875 -0.65625 2.328125 -0.65625q0.765625 0 1.390625 0.234375q0.640625 0.21875 1.109375 0.625q0.484375 0.390625 0.78125 0.921875q0.3125 0.515625 0.390625 1.109375l-0.421875 -0.140625l0 -2.546875l1.9375 0l0 9.796875l-1.9375 0l0 -2.328125l0.4375 -0.140625q-0.109375 0.515625 -0.453125 1.0q-0.34375 0.46875 -0.875 0.84375q-0.53125 0.359375 -1.171875 0.59375q-0.640625 0.21875 -1.359375 0.21875zm0.5 -1.765625q0.890625 0 1.546875 -0.421875q0.671875 -0.4375 1.046875 -1.1875q0.390625 -0.765625 0.390625 -1.734375q0 -0.953125 -0.390625 -1.703125q-0.375 -0.75 -1.046875 -1.171875q-0.65625 -0.4375 -1.546875 -0.4375q-0.859375 0 -1.515625 0.4375q-0.65625 0.421875 -1.046875 1.171875q-0.375 0.75 -0.375 1.703125q0 0.96875 0.375 1.734375q0.390625 0.75 1.046875 1.1875q0.65625 0.421875 1.515625 0.421875zm11.700027 1.765625q-1.359375 0 -2.4375 -0.671875q-1.0625 -0.671875 -1.6875 -1.828125q-0.625 -1.15625 -0.625 -2.59375q0 -1.4375 0.625 -2.59375q0.625 -1.15625 1.6875 -1.828125q1.078125 -0.671875 2.4375 -0.671875q1.3125 0 2.375 0.53125q1.078125 0.53125 1.640625 1.453125l-1.0625 1.296875q-0.296875 -0.421875 -0.765625 -0.78125q-0.46875 -0.359375 -1.0 -0.5625q-0.515625 -0.203125 -1.0 -0.203125q-0.890625 0 -1.59375 0.4375q-0.703125 0.4375 -1.109375 1.203125q-0.40625 0.765625 -0.40625 1.71875q0 0.953125 0.421875 1.71875q0.4375 0.75 1.140625 1.203125q0.703125 0.4375 1.5625 0.4375q0.515625 0 0.984375 -0.171875q0.46875 -0.171875 0.921875 -0.5q0.453125 -0.34375 0.84375 -0.828125l1.0625 1.3125q-0.59375 0.84375 -1.703125 1.390625q-1.109375 0.53125 -2.3125 0.53125zm7.0435944 -0.1875l0 -12.296875l1.921875 0l0 12.296875l-1.921875 0zm-2.046875 -7.921875l0 -1.875l6.234375 0l0 1.875l-6.234375 0zm13.700256 7.921875l0 -13.0625l1.984375 0l4.75 7.75l-0.953125 -0.015625l4.8125 -7.734375l1.875 0l0 13.0625l-2.015625 0l0 -5.359375q0 -1.671875 0.078125 -3.015625q0.078125 -1.34375 0.296875 -2.671875l0.25 0.6875l-4.265625 6.609375l-1.234375 0l-4.140625 -6.53125l0.203125 -0.765625q0.203125 1.25 0.28125 2.578125q0.09375 1.3125 0.09375 3.109375l0 5.359375l-2.015625 0zm19.400253 0.1875q-1.203125 0 -2.203125 -0.671875q-1.0 -0.671875 -1.609375 -1.828125q-0.59375 -1.15625 -0.59375 -2.609375q0 -1.484375 0.609375 -2.625q0.609375 -1.140625 1.640625 -1.796875q1.046875 -0.65625 2.328125 -0.65625q0.765625 0 1.390625 0.234375q0.640625 0.21875 1.109375 0.625q0.484375 0.390625 0.78125 0.921875q0.3125 0.515625 0.390625 1.109375l-0.421875 -0.140625l0 -2.546875l1.9375 0l0 9.796875l-1.9375 0l0 -2.328125l0.4375 -0.140625q-0.109375 0.515625 -0.453125 1.0q-0.34375 0.46875 -0.875 0.84375q-0.53125 0.359375 -1.171875 0.59375q-0.640625 0.21875 -1.359375 0.21875zm0.5 -1.765625q0.890625 0 1.546875 -0.421875q0.671875 -0.4375 1.046875 -1.1875q0.390625 -0.765625 0.390625 -1.734375q0 -0.953125 -0.390625 -1.703125q-0.375 -0.75 -1.046875 -1.171875q-0.65625 -0.4375 -1.546875 -0.4375q-0.859375 0 -1.515625 0.4375q-0.65625 0.421875 -1.046875 1.171875q-0.375 0.75 -0.375 1.703125q0 0.96875 0.375 1.734375q0.390625 0.75 1.046875 1.1875q0.65625 0.421875 1.515625 0.421875zm7.5437775 1.578125l0 -9.796875l1.921875 0l0 2.015625l-0.34375 0.21875q0.1875 -0.640625 0.734375 -1.1875q0.546875 -0.5625 1.28125 -0.90625q0.75 -0.34375 1.53125 -0.34375q1.125 0 1.859375 0.4375q0.75 0.4375 1.125 1.34375q0.375 0.890625 0.375 2.25l0 5.96875l-1.921875 0l0 -5.84375q0 -0.828125 -0.21875 -1.375q-0.21875 -0.5625 -0.6875 -0.8125q-0.46875 -0.25 -1.15625 -0.21875q-0.5625 0 -1.03125 0.1875q-0.46875 0.171875 -0.8125 0.5q-0.34375 0.3125 -0.546875 0.734375q-0.1875 0.40625 -0.1875 0.890625l0 5.9375l-0.953125 0q-0.234375 0 -0.484375 0q-0.25 0 -0.484375 0zm14.866089 0.1875q-1.203125 0 -2.203125 -0.671875q-1.0 -0.671875 -1.609375 -1.828125q-0.59375 -1.15625 -0.59375 -2.609375q0 -1.484375 0.609375 -2.625q0.609375 -1.140625 1.640625 -1.796875q1.046875 -0.65625 2.328125 -0.65625q0.765625 0 1.390625 0.234375q0.640625 0.21875 1.109375 0.625q0.484375 0.390625 0.78125 0.921875q0.3125 0.515625 0.390625 1.109375l-0.421875 -0.140625l0 -2.546875l1.9375 0l0 9.796875l-1.9375 0l0 -2.328125l0.4375 -0.140625q-0.109375 0.515625 -0.453125 1.0q-0.34375 0.46875 -0.875 0.84375q-0.53125 0.359375 -1.171875 0.59375q-0.640625 0.21875 -1.359375 0.21875zm0.5 -1.765625q0.890625 0 1.546875 -0.421875q0.671875 -0.4375 1.046875 -1.1875q0.390625 -0.765625 0.390625 -1.734375q0 -0.953125 -0.390625 -1.703125q-0.375 -0.75 -1.046875 -1.171875q-0.65625 -0.4375 -1.546875 -0.4375q-0.859375 0 -1.515625 0.4375q-0.65625 0.421875 -1.046875 1.171875q-0.375 0.75 -0.375 1.703125q0 0.96875 0.375 1.734375q0.390625 0.75 1.046875 1.1875q0.65625 0.421875 1.515625 0.421875zm11.934402 5.875q-1.046875 0 -2.09375 -0.328125q-1.03125 -0.328125 -1.65625 -0.859375l0.703125 -1.484375q0.375 0.28125 0.875 0.484375q0.5 0.21875 1.0625 0.34375q0.5625 0.125 1.109375 0.125q1.015625 0 1.703125 -0.34375q0.703125 -0.328125 1.046875 -0.984375q0.359375 -0.65625 0.359375 -1.625l0 -1.875l0.203125 0.125q-0.09375 0.578125 -0.609375 1.109375q-0.515625 0.53125 -1.28125 0.875q-0.75 0.328125 -1.5625 0.328125q-1.390625 0 -2.484375 -0.65625q-1.09375 -0.671875 -1.734375 -1.8125q-0.625 -1.15625 -0.625 -2.625q0 -1.46875 0.625 -2.609375q0.625 -1.15625 1.703125 -1.8125q1.09375 -0.671875 2.46875 -0.671875q0.546875 0 1.0625 0.140625q0.53125 0.140625 0.984375 0.390625q0.453125 0.25 0.796875 0.546875q0.359375 0.296875 0.578125 0.640625q0.234375 0.328125 0.28125 0.625l-0.40625 0.15625l0 -2.296875l1.921875 0l0 9.203125q0 1.171875 -0.34375 2.078125q-0.34375 0.90625 -1.0 1.53125q-0.65625 0.625 -1.59375 0.953125q-0.921875 0.328125 -2.09375 0.328125zm0.0625 -5.875q0.921875 0 1.625 -0.421875q0.71875 -0.4375 1.109375 -1.1875q0.390625 -0.75 0.390625 -1.71875q0 -0.96875 -0.40625 -1.71875q-0.40625 -0.765625 -1.109375 -1.1875q-0.6875 -0.4375 -1.609375 -0.4375q-0.890625 0 -1.59375 0.4375q-0.703125 0.4375 -1.109375 1.203125q-0.390625 0.75 -0.390625 1.703125q0 0.953125 0.390625 1.71875q0.40625 0.75 1.109375 1.1875q0.703125 0.421875 1.59375 0.421875zm12.217285 1.765625q-1.5 0 -2.671875 -0.640625q-1.15625 -0.640625 -1.828125 -1.765625q-0.65625 -1.125 -0.65625 -2.578125q0 -1.15625 0.375 -2.109375q0.375 -0.953125 1.03125 -1.640625q0.65625 -0.703125 1.578125 -1.078125q0.9375 -0.390625 2.015625 -0.390625q0.953125 0 1.765625 0.359375q0.828125 0.359375 1.421875 1.0q0.609375 0.640625 0.9375 1.515625q0.328125 0.859375 0.3125 1.875l-0.015625 0.828125l-8.0 0l-0.4375 -1.53125l6.765625 0l-0.265625 0.3125l0 -0.4375q-0.0625 -0.625 -0.421875 -1.109375q-0.34375 -0.484375 -0.890625 -0.765625q-0.546875 -0.28125 -1.171875 -0.28125q-1.015625 0 -1.703125 0.390625q-0.6875 0.375 -1.046875 1.125q-0.34375 0.734375 -0.34375 1.8125q0 1.015625 0.421875 1.78125q0.421875 0.75 1.203125 1.171875q0.796875 0.40625 1.8125 0.40625q0.734375 0 1.359375 -0.234375q0.625 -0.25 1.359375 -0.890625l0.96875 1.359375q-0.453125 0.453125 -1.09375 0.796875q-0.640625 0.328125 -1.359375 0.53125q-0.71875 0.1875 -1.421875 0.1875zm6.3388214 -0.1875l0 -9.796875l1.9375 0l0 2.09375l-0.359375 0.21875q0.15625 -0.484375 0.46875 -0.921875q0.328125 -0.453125 0.796875 -0.796875q0.484375 -0.34375 1.03125 -0.546875q0.5625 -0.21875 1.140625 -0.21875q0.828125 0 1.46875 0.28125q0.640625 0.28125 1.046875 0.84375q0.40625 0.5625 0.59375 1.40625l-0.296875 -0.078125l0.125 -0.3125q0.21875 -0.4375 0.578125 -0.8125q0.359375 -0.390625 0.828125 -0.6875q0.46875 -0.296875 0.984375 -0.46875q0.53125 -0.171875 1.03125 -0.171875q1.09375 0 1.8125 0.453125q0.71875 0.453125 1.078125 1.375q0.375 0.90625 0.375 2.265625l0 5.875l-1.9375 0l0 -5.765625q0 -0.84375 -0.21875 -1.375q-0.21875 -0.53125 -0.65625 -0.78125q-0.421875 -0.265625 -1.09375 -0.265625q-0.515625 0 -0.984375 0.1875q-0.453125 0.171875 -0.796875 0.484375q-0.328125 0.3125 -0.515625 0.734375q-0.171875 0.421875 -0.171875 0.921875l0 5.859375l-1.953125 0l0 -5.796875q0 -0.765625 -0.21875 -1.296875q-0.21875 -0.53125 -0.65625 -0.8125q-0.421875 -0.28125 -1.046875 -0.28125q-0.515625 0 -0.96875 0.1875q-0.4375 0.171875 -0.78125 0.484375q-0.328125 0.296875 -0.515625 0.71875q-0.1875 0.421875 -0.1875 0.90625l0 5.890625l-1.9375 0zm21.776154 0.1875q-1.5 0 -2.671875 -0.640625q-1.15625 -0.640625 -1.828125 -1.765625q-0.65625 -1.125 -0.65625 -2.578125q0 -1.15625 0.375 -2.109375q0.375 -0.953125 1.03125 -1.640625q0.65625 -0.703125 1.578125 -1.078125q0.9375 -0.390625 2.015625 -0.390625q0.953125 0 1.765625 0.359375q0.828125 0.359375 1.421875 1.0q0.609375 0.640625 0.9375 1.515625q0.328125 0.859375 0.3125 1.875l-0.015625 0.828125l-8.0 0l-0.4375 -1.53125l6.765625 0l-0.265625 0.3125l0 -0.4375q-0.0625 -0.625 -0.421875 -1.109375q-0.34375 -0.484375 -0.890625 -0.765625q-0.546875 -0.28125 -1.171875 -0.28125q-1.015625 0 -1.703125 0.390625q-0.6875 0.375 -1.046875 1.125q-0.34375 0.734375 -0.34375 1.8125q0 1.015625 0.421875 1.78125q0.421875 0.75 1.203125 1.171875q0.796875 0.40625 1.8125 0.40625q0.734375 0 1.359375 -0.234375q0.625 -0.25 1.359375 -0.890625l0.96875 1.359375q-0.453125 0.453125 -1.09375 0.796875q-0.640625 0.328125 -1.359375 0.53125q-0.71875 0.1875 -1.421875 0.1875zm6.3700867 -0.1875l0 -9.796875l1.921875 0l0 2.015625l-0.34375 0.21875q0.1875 -0.640625 0.734375 -1.1875q0.546875 -0.5625 1.28125 -0.90625q0.75 -0.34375 1.53125 -0.34375q1.125 0 1.859375 0.4375q0.75 0.4375 1.125 1.34375q0.375 0.890625 0.375 2.25l0 5.96875l-1.921875 0l0 -5.84375q0 -0.828125 -0.21875 -1.375q-0.21875 -0.5625 -0.6875 -0.8125q-0.46875 -0.25 -1.15625 -0.21875q-0.5625 0 -1.03125 0.1875q-0.46875 0.171875 -0.8125 0.5q-0.34375 0.3125 -0.546875 0.734375q-0.1875 0.40625 -0.1875 0.890625l0 5.9375l-0.953125 0q-0.234375 0 -0.484375 0q-0.25 0 -0.484375 0zm12.319214 0l0 -12.296875l1.921875 0l0 12.296875l-1.921875 0zm-2.046875 -7.921875l0 -1.875l6.234375 0l0 1.875l-6.234375 0zm17.731506 8.109375q-1.0625 0 -1.96875 -0.28125q-0.90625 -0.28125 -1.640625 -0.84375q-0.734375 -0.578125 -1.3125 -1.40625l1.375 -1.59375q0.921875 1.3125 1.75 1.8125q0.84375 0.5 2.0 0.5q0.703125 0 1.28125 -0.21875q0.578125 -0.234375 0.90625 -0.625q0.34375 -0.390625 0.34375 -0.890625q0 -0.328125 -0.109375 -0.625q-0.109375 -0.3125 -0.34375 -0.546875q-0.234375 -0.25 -0.59375 -0.453125q-0.359375 -0.203125 -0.84375 -0.359375q-0.484375 -0.15625 -1.125 -0.265625q-1.0 -0.21875 -1.75 -0.546875q-0.75 -0.34375 -1.25 -0.84375q-0.5 -0.5 -0.75 -1.140625q-0.25 -0.640625 -0.25 -1.453125q0 -0.78125 0.34375 -1.453125q0.359375 -0.671875 0.953125 -1.15625q0.609375 -0.5 1.421875 -0.765625q0.828125 -0.28125 1.78125 -0.28125q1.015625 0 1.84375 0.265625q0.84375 0.265625 1.5 0.78125q0.65625 0.5 1.078125 1.25l-1.421875 1.40625q-0.359375 -0.625 -0.828125 -1.03125q-0.46875 -0.421875 -1.03125 -0.640625q-0.5625 -0.21875 -1.1875 -0.21875q-0.734375 0 -1.28125 0.234375q-0.53125 0.21875 -0.84375 0.625q-0.3125 0.390625 -0.3125 0.9375q0 0.390625 0.15625 0.71875q0.15625 0.328125 0.453125 0.578125q0.3125 0.25 0.828125 0.453125q0.53125 0.1875 1.25 0.328125q1.03125 0.234375 1.828125 0.578125q0.8125 0.34375 1.359375 0.8125q0.5625 0.46875 0.84375 1.046875q0.296875 0.578125 0.296875 1.25q0 1.25 -0.578125 2.171875q-0.578125 0.90625 -1.640625 1.40625q-1.0625 0.484375 -2.53125 0.484375zm8.76651 4.109375l1.984375 -4.578125l0.015625 1.53125l-4.890625 -11.046875l2.234375 0l3.0625 7.203125q0.09375 0.1875 0.21875 0.578125q0.140625 0.375 0.234375 0.75l-0.484375 0.109375q0.140625 -0.390625 0.28125 -0.78125q0.140625 -0.390625 0.265625 -0.78125l2.5625 -7.078125l2.28125 0l-4.03125 9.796875l-1.65625 4.296875l-2.078125 0zm12.277618 -4.109375q-1.234375 0 -2.21875 -0.421875q-0.984375 -0.4375 -1.640625 -1.28125l1.296875 -1.109375q0.5625 0.640625 1.21875 0.9375q0.671875 0.28125 1.515625 0.28125q0.328125 0 0.609375 -0.078125q0.296875 -0.078125 0.515625 -0.25q0.21875 -0.171875 0.328125 -0.40625q0.109375 -0.234375 0.109375 -0.515625q0 -0.484375 -0.359375 -0.78125q-0.1875 -0.125 -0.59375 -0.28125q-0.390625 -0.15625 -1.03125 -0.328125q-1.078125 -0.28125 -1.765625 -0.625q-0.6875 -0.359375 -1.0625 -0.8125q-0.28125 -0.359375 -0.421875 -0.765625q-0.125 -0.421875 -0.125 -0.9375q0 -0.609375 0.265625 -1.125q0.28125 -0.515625 0.75 -0.890625q0.484375 -0.390625 1.125 -0.59375q0.640625 -0.203125 1.375 -0.203125q0.6875 0 1.359375 0.1875q0.6875 0.1875 1.265625 0.546875q0.578125 0.34375 0.96875 0.828125l-1.09375 1.21875q-0.359375 -0.359375 -0.78125 -0.625q-0.421875 -0.265625 -0.859375 -0.40625q-0.421875 -0.15625 -0.765625 -0.15625q-0.390625 0 -0.71875 0.078125q-0.3125 0.0625 -0.53125 0.21875q-0.203125 0.140625 -0.328125 0.375q-0.109375 0.21875 -0.109375 0.5q0.015625 0.234375 0.125 0.453125q0.109375 0.21875 0.296875 0.359375q0.203125 0.15625 0.609375 0.328125q0.40625 0.15625 1.046875 0.3125q0.921875 0.234375 1.53125 0.53125q0.609375 0.28125 0.96875 0.65625q0.375 0.359375 0.515625 0.828125q0.15625 0.46875 0.15625 1.046875q0 0.828125 -0.484375 1.5q-0.46875 0.65625 -1.28125 1.03125q-0.796875 0.375 -1.78125 0.375zm6.8894653 -0.1875l0 -12.296875l1.921875 0l0 12.296875l-1.921875 0zm-2.046875 -7.921875l0 -1.875l6.234375 0l0 1.875l-6.234375 0zm12.461273 8.109375q-1.5 0 -2.671875 -0.640625q-1.15625 -0.640625 -1.828125 -1.765625q-0.65625 -1.125 -0.65625 -2.578125q0 -1.15625 0.375 -2.109375q0.375 -0.953125 1.03125 -1.640625q0.65625 -0.703125 1.578125 -1.078125q0.9375 -0.390625 2.015625 -0.390625q0.953125 0 1.765625 0.359375q0.828125 0.359375 1.421875 1.0q0.609375 0.640625 0.9375 1.515625q0.328125 0.859375 0.3125 1.875l-0.015625 0.828125l-8.0 0l-0.4375 -1.53125l6.765625 0l-0.265625 0.3125l0 -0.4375q-0.0625 -0.625 -0.421875 -1.109375q-0.34375 -0.484375 -0.890625 -0.765625q-0.546875 -0.28125 -1.171875 -0.28125q-1.015625 0 -1.703125 0.390625q-0.6875 0.375 -1.046875 1.125q-0.34375 0.734375 -0.34375 1.8125q0 1.015625 0.421875 1.78125q0.421875 0.75 1.203125 1.171875q0.796875 0.40625 1.8125 0.40625q0.734375 0 1.359375 -0.234375q0.625 -0.25 1.359375 -0.890625l0.96875 1.359375q-0.453125 0.453125 -1.09375 0.796875q-0.640625 0.328125 -1.359375 0.53125q-0.71875 0.1875 -1.421875 0.1875zm6.3388367 -0.1875l0 -9.796875l1.9375 0l0 2.09375l-0.359375 0.21875q0.15625 -0.484375 0.46875 -0.921875q0.328125 -0.453125 0.796875 -0.796875q0.484375 -0.34375 1.03125 -0.546875q0.5625 -0.21875 1.140625 -0.21875q0.828125 0 1.46875 0.28125q0.640625 0.28125 1.046875 0.84375q0.40625 0.5625 0.59375 1.40625l-0.296875 -0.078125l0.125 -0.3125q0.21875 -0.4375 0.578125 -0.8125q0.359375 -0.390625 0.828125 -0.6875q0.46875 -0.296875 0.984375 -0.46875q0.53125 -0.171875 1.03125 -0.171875q1.09375 0 1.8125 0.453125q0.71875 0.453125 1.078125 1.375q0.375 0.90625 0.375 2.265625l0 5.875l-1.9375 0l0 -5.765625q0 -0.84375 -0.21875 -1.375q-0.21875 -0.53125 -0.65625 -0.78125q-0.421875 -0.265625 -1.09375 -0.265625q-0.515625 0 -0.984375 0.1875q-0.453125 0.171875 -0.796875 0.484375q-0.328125 0.3125 -0.515625 0.734375q-0.171875 0.421875 -0.171875 0.921875l0 5.859375l-1.953125 0l0 -5.796875q0 -0.765625 -0.21875 -1.296875q-0.21875 -0.53125 -0.65625 -0.8125q-0.421875 -0.28125 -1.046875 -0.28125q-0.515625 0 -0.96875 0.1875q-0.4375 0.171875 -0.78125 0.484375q-0.328125 0.296875 -0.515625 0.71875q-0.1875 0.421875 -0.1875 0.90625l0 5.890625l-1.9375 0z" fill-rule="nonzero"/><path fill="#c96868" d="m173.43259 84.87121l0 0c0 6.3920517 9.609085 11.9745865 23.362198 13.572594l0 -3.8936996l7.7874146 8.232521l-7.7874146 7.342285l0 -3.8936996l0 0c-13.753113 -1.5980148 -23.362198 -7.180542 -23.362198 -13.572601z" fill-rule="evenodd"/><path fill="#a05353" d="m204.5822 78.64089l0 0c-13.8710785 0 -26.070831 4.12751 -29.923798 10.124016c-2.7198792 -4.2330475 -0.8583679 -8.795258 5.025818 -12.317345c5.884201 -3.522087 15.10614 -5.5940704 24.89798 -5.5940704z" fill-rule="evenodd"/><path fill="#000000" fill-opacity="0.0" d="m173.43259 84.87121l0 0c0 6.3920517 9.609085 11.9745865 23.362198 13.572594l0 -3.8936996l7.7874146 8.232521l-7.7874146 7.342285l0 -3.8936996l0 0c-13.753113 -1.5980148 -23.362198 -7.180542 -23.362198 -13.572601l0 -7.7873993l0 0c0 -7.741768 13.946152 -14.017715 31.149612 -14.017715l0 7.7873993l0 0c-13.8710785 0 -26.070831 4.12751 -29.923798 10.124016" fill-rule="evenodd"/><path stroke="#000000" stroke-width="1.0" stroke-linejoin="round" stroke-linecap="butt" d="m173.43259 84.87121l0 0c0 6.3920517 9.609085 11.9745865 23.362198 13.572594l0 -3.8936996l7.7874146 8.232521l-7.7874146 7.342285l0 -3.8936996l0 0c-13.753113 -1.5980148 -23.362198 -7.180542 -23.362198 -13.572601l0 -7.7873993l0 0c0 -7.741768 13.946152 -14.017715 31.149612 -14.017715l0 7.7873993l0 0c-13.8710785 0 -26.070831 4.12751 -29.923798 10.124016" fill-rule="evenodd"/><path fill="#7eacb5" d="m210.52211 102.78519l7.7874146 -8.232529l0 3.8937073l0 0c10.661652 -1.2388153 19.077774 -4.918663 22.136383 -9.678902l0 0c2.337967 3.6386566 1.3042908 7.54821 -2.865631 10.838409c-4.169922 3.2901993 -11.12114 5.6809616 -19.270752 6.6278915l0 3.8936996z" fill-rule="evenodd"/><path fill="#648990" d="m241.67172 92.66117l0 0c0 -7.7417755 -13.946152 -14.017723 -31.149612 -14.017723l0 -7.7873993l0 0c17.20346 0 31.149612 6.2759476 31.149612 14.017715z" fill-rule="evenodd"/><path fill="#000000" fill-opacity="0.0" d="m241.67172 92.66117l0 0c0 -7.7417755 -13.946152 -14.017723 -31.149612 -14.017723l0 -7.7873993l0 0c17.20346 0 31.149612 6.2759476 31.149612 14.017715l0 7.787407l0 0c0 6.3920517 -9.609085 11.974579 -23.362198 13.572594l0 3.8936996l-7.7874146 -7.3422775l7.7874146 -8.232529l0 3.8937073l0 0c10.661652 -1.2388153 19.077774 -4.918663 22.136383 -9.678902" fill-rule="evenodd"/><path stroke="#000000" stroke-width="1.0" stroke-linejoin="round" stroke-linecap="butt" d="m241.67172 92.66117l0 0c0 -7.7417755 -13.946152 -14.017723 -31.149612 -14.017723l0 -7.7873993l0 0c17.20346 0 31.149612 6.2759476 31.149612 14.017715l0 7.787407l0 0c0 6.3920517 -9.609085 11.974579 -23.362198 13.572594l0 3.8936996l-7.7874146 -7.3422775l7.7874146 -8.232529l0 3.8937073l0 0c10.661652 -1.2388153 19.077774 -4.918663 22.136383 -9.678902" fill-rule="evenodd"/></g></svg>